<svg width="41" height="40" viewBox="0 0 41 40" fill="none" xmlns="http://www.w3.org/2000/svg">
<path d="M30.1951 37.2246H10.3701V39.7027H30.1951V37.2246Z" fill="#E7E7E7"/>
<path d="M32.6734 34.7463H30.1953V37.2245H32.6734V34.7463Z" fill="#E7E7E7"/>
<path d="M30.1951 34.7463H10.3701V37.2245H30.1951V34.7463Z" fill="#231E2B"/>
<path d="M10.3712 34.7463H7.89307V37.2245H10.3712V34.7463Z" fill="#E7E7E7"/>
<path d="M30.1954 32.2686H27.7173V34.7467H30.1954V32.2686Z" fill="#E7E7E7"/>
<path d="M27.7169 32.2686H25.2388V34.7467H27.7169V32.2686Z" fill="#918D8D"/>
<path d="M25.2398 32.2686H22.7617V34.7467H25.2398V32.2686Z" fill="#E7E7E7"/>
<path d="M22.7613 32.2686H20.2832V34.7467H22.7613V32.2686Z" fill="#918D8D"/>
<path d="M20.2829 32.2686H15.3267V34.7467H20.2829V32.2686Z" fill="#E7E7E7"/>
<path d="M15.3268 32.2686H12.8486V34.7467H15.3268V32.2686Z" fill="#918D8D"/>
<path d="M12.8482 32.2686H10.3701V34.7467H12.8482V32.2686Z" fill="#E7E7E7"/>
<path d="M10.3712 24.834H7.89307V34.7465H10.3712V24.834Z" fill="#231E2B"/>
<path d="M32.6734 24.834H30.1953V34.7465H32.6734V24.834Z" fill="#231E2B"/>
<path d="M30.1951 29.7903H10.3701V32.2684H30.1951V29.7903Z" fill="#36313B"/>
<path d="M7.8917 24.834H5.41357V34.7465H7.8917V24.834Z" fill="#E7E7E7"/>
<path d="M35.152 24.834H32.6738V34.7465H35.152V24.834Z" fill="#E7E7E7"/>
<path d="M25.2398 22.3557H22.7617V27.312H25.2398V22.3557Z" fill="#231E2B"/>
<path d="M37.63 22.3557H35.1519V24.8338H37.63V22.3557Z" fill="#E7E7E7"/>
<path d="M35.152 22.3557H32.6738V24.8338H35.152V22.3557Z" fill="#231E2B"/>
<path d="M32.6734 22.3557H30.1953V24.8338H32.6734V22.3557Z" fill="#B6B7B8"/>
<path d="M17.8048 22.3557H15.3267V27.312H17.8048V22.3557Z" fill="#231E2B"/>
<path d="M10.3712 22.3557H7.89307V24.8338H10.3712V22.3557Z" fill="#B6B7B8"/>
<path d="M7.8917 22.3557H5.41357V24.8338H7.8917V22.3557Z" fill="#231E2B"/>
<path d="M5.4144 22.3557H2.93628V24.8338H5.4144V22.3557Z" fill="#E7E7E7"/>
<path d="M35.152 19.8774H32.6738V22.3556H35.152V19.8774Z" fill="#B6B7B8"/>
<path d="M7.8917 19.8774H5.41357V22.3556H7.8917V19.8774Z" fill="#B6B7B8"/>
<path d="M5.4144 9.96509H2.93628V22.3557H5.4144V9.96509Z" fill="#231E2B"/>
<path d="M37.63 9.96509H35.1519V22.3557H37.63V9.96509Z" fill="#231E2B"/>
<path d="M32.6734 17.3997H30.1953V19.8778H32.6734V17.3997Z" fill="#B6B7B8"/>
<path d="M25.2398 17.3997H22.7617V19.8778H25.2398V17.3997Z" fill="#B6B7B8"/>
<path d="M17.8048 17.3997H15.3267V19.8778H17.8048V17.3997Z" fill="#B6B7B8"/>
<path d="M10.3712 19.8777H15.3274V17.3996H17.8056V12.4434H7.89307V17.3996H10.3712V19.8777Z" fill="#231E2B"/>
<path d="M10.3712 17.3997H7.89307V19.8778H10.3712V17.3997Z" fill="#B6B7B8"/>
<path d="M2.93613 9.96509H0.458008V22.3557H2.93613V9.96509Z" fill="#E7E7E7"/>
<path d="M32.6742 17.3996V12.4434H22.7617V17.3996H25.2398V19.8777H30.1961V17.3996H32.6742Z" fill="#231E2B"/>
<path d="M40.1085 9.96509H37.6304V22.3557H40.1085V9.96509Z" fill="#E7E7E7"/>
<path d="M37.63 7.48706H35.1519V9.96519H37.63V7.48706Z" fill="#E7E7E7"/>
<path d="M35.152 7.48706H32.6738V9.96519H35.152V7.48706Z" fill="#231E2B"/>
<path d="M32.673 7.48716H30.1948V5.00903H10.3698V7.48716H7.8917V9.96528H5.41357V19.8778H7.8917V12.4434H17.8042V19.8778H7.8917V22.3559H10.3698V29.7903H30.1948V22.3559H32.673V19.8778H22.7605V12.4434H32.673V19.8778H35.1511V9.96528H32.673V7.48716ZM15.3261 27.3122V22.3559H17.8042V27.3122H15.3261ZM25.2386 22.3559V27.3122H22.7605V22.3559H25.2386Z" fill="#E7E7E7"/>
<path d="M7.8917 7.48706H5.41357V9.96519H7.8917V7.48706Z" fill="#231E2B"/>
<path d="M5.4144 7.48706H2.93628V9.96519H5.4144V7.48706Z" fill="#E7E7E7"/>
<path d="M35.152 5.00903H32.6738V7.48716H35.152V5.00903Z" fill="#E7E7E7"/>
<path d="M32.6734 5.00903H30.1953V7.48716H32.6734V5.00903Z" fill="#231E2B"/>
<path d="M10.3712 5.00903H7.89307V7.48716H10.3712V5.00903Z" fill="#231E2B"/>
<path d="M7.8917 5.00903H5.41357V7.48716H7.8917V5.00903Z" fill="#E7E7E7"/>
<path d="M32.6734 2.53076H30.1953V5.00889H32.6734V2.53076Z" fill="#E7E7E7"/>
<path d="M30.1951 2.53076H10.3701V5.00889H30.1951V2.53076Z" fill="#231E2B"/>
<path d="M10.3712 2.53076H7.89307V5.00889H10.3712V2.53076Z" fill="#E7E7E7"/>
<path d="M30.1951 0.0527344H10.3701V2.53086H30.1951V0.0527344Z" fill="#E7E7E7"/>
</svg>
